PathFileType	4	(X/Y/Z)	C:\Users\Gabre\Documents\2-Sophmore\Autumn\ME 191\Nick_10292018\Nick_10292018\Upper Extremity\shoulder_flexion.trc
DataRate	CameraRate	NumFrames	NumMarkers	Units	OrigDataRate	OrigDataStartFrame	OrigNumFrames
100.00	100.00	       8	21	mm	100.00	389	       621
Frame#	Time	Back_IMU_O			Back_IMU_D			Back_IMU_X			Back_IMU_Y			C7			R.Acromion			L.Acromion			R.Elbow			R.Radius			R.Ulna			R.Hand			Humerus_IMU_O			Humerus_IMU_D			Humerus_IMU_X			Humerus_IMU_Y			Forearm_IMU_O			Forearm_IMU_D			Forearm_IMU_X			Forearm_IMU_Y			Hand_IMU_O			Scapula_IMU_O			
		X1	Y1	Z1	X2	Y2	Z2	X3	Y3	Z3	X4	Y4	Z4	X5	Y5	Z5	X6	Y6	Z6	X7	Y7	Z7	X8	Y8	Z8	X9	Y9	Z9	X10	Y10	Z10	X11	Y11	Z11	X12	Y12	Z12	X13	Y13	Z13	X14	Y14	Z14	X15	Y15	Z15	X16	Y16	Z16	X17	Y17	Z17	X18	Y18	Z18	X19	Y19	Z19	X20	Y20	Z20	X21	Y21	Z21	

389	3.880	-895.68549	444.33170	1007.41333	-904.83875	520.74799	897.83698	-896.87610	530.05835	1000.42432	-903.79883	436.39450	905.11383	-887.10907	488.90213	1024.27649	-835.96301	373.96011	1039.87268	-801.84552	664.23145	991.33612	-700.45593	234.13129	1258.43140	-691.48138	277.97180	1534.39807	-656.30408	235.15042	1520.20508	-670.92371	263.10553	1644.57825	-814.96826	341.75101	1132.42017	-766.87616	223.76195	1121.11841	-807.10895	248.41771	1073.23523	-775.04620	315.47424	1177.40527	-723.28033	281.99942	1469.45251	-641.91241	212.06950	1488.43225	-655.83160	214.11487	1443.89124	-709.99823	278.11014	1514.33081	-671.22614	238.73637	1596.43591	-863.19550	335.45941	1031.48547	
390	3.890	-895.58234	444.21198	1007.31836	-904.83875	520.74799	897.83698	-896.85974	530.05811	1000.41199	-903.68799	436.31726	905.02478	-887.11078	488.86945	1024.28345	-835.96008	373.94281	1039.82056	-801.86462	664.25189	991.33148	-700.50055	234.08232	1258.46057	-691.65948	278.10376	1534.41467	-656.07452	235.21486	1520.06946	-671.11908	263.23895	1644.57520	-815.02032	341.73819	1132.38257	-766.99921	223.69803	1121.16357	-807.20758	248.41838	1073.23120	-775.08154	315.40067	1177.42847	-723.15131	282.09146	1469.31433	-641.91241	212.06950	1488.43225	-655.83160	214.11487	1443.89124	-710.03241	278.12558	1514.28870	-671.41974	238.83574	1596.51782	-863.11566	335.37943	1031.42505	
391	3.900	-895.50714	444.16721	1007.19409	-904.83875	520.74799	897.83698	-896.78656	530.02374	1000.38770	-903.63696	436.24066	904.94159	-887.06714	488.83060	1024.21277	-835.93951	373.87140	1039.77649	-801.82697	664.15619	991.33960	-700.42773	234.01207	1258.40491	-691.68402	278.10663	1534.39856	-656.41406	235.20749	1520.20081	-671.41656	263.42340	1644.55786	-814.85992	341.70944	1132.36682	-767.01709	223.58727	1121.16785	-807.27039	248.32266	1073.22864	-775.08154	315.40067	1177.42847	-723.15131	282.09146	1469.31433	-642.02789	212.11536	1488.46643	-655.88800	214.13260	1443.87280	-710.08893	278.18665	1514.21143	-671.30688	238.93030	1596.39331	-863.11871	335.36865	1031.40381	
392	3.910	-895.50958	444.11877	1007.21490	-904.81982	520.71729	897.77594	-896.78204	530.02661	1000.34662	-903.63824	436.18539	904.94550	-887.04572	488.65106	1024.15552	-835.92316	373.84235	1039.77319	-801.80048	664.09229	991.27600	-700.47656	233.97774	1258.36963	-691.68976	278.10880	1534.37463	-656.51910	235.26361	1520.20532	-671.48669	263.49054	1644.51196	-814.95123	341.59421	1132.32886	-767.01709	223.58727	1121.16785	-807.22827	248.24667	1073.23071	-774.99811	315.34619	1177.43311	-723.15131	282.09146	1469.31433	-642.15015	212.04880	1488.52209	-655.88800	214.13260	1443.87280	-710.16272	278.24655	1514.21875	-671.35297	238.95192	1596.37976	-863.06793	335.25729	1031.38123	
393	3.920	-895.49097	444.11810	1007.20062	-904.82874	520.61810	897.79816	-896.69153	529.89441	1000.23187	-903.67316	436.20032	904.88873	-886.98773	488.64612	1024.08350	-835.92322	373.78897	1039.78491	-801.80823	664.00104	991.27826	-700.38599	233.80403	1258.38904	-691.70612	278.11151	1534.35840	-656.56519	235.37410	1520.24963	-671.51221	263.57220	1644.54553	-814.84302	341.47244	1132.36243	-766.84357	223.51151	1121.05554	-807.22827	248.24667	1073.23071	-774.93817	315.32724	1177.44434	-723.10992	282.12650	1469.24524	-642.02277	212.09016	1488.60291	-655.88800	214.13260	1443.87280	-710.19226	278.27798	1514.11499	-671.45947	239.01460	1596.41406	-863.05664	335.16116	1031.37439	
394	3.930	-895.47729	444.08383	1007.14307	-904.78961	520.51831	897.77917	-896.66840	529.80585	1000.20691	-903.67828	436.14224	904.88696	-887.07715	488.59720	1024.09753	-835.83282	373.71088	1039.74438	-801.71960	663.93286	991.19629	-700.38599	233.80403	1258.38904	-691.69867	278.10861	1534.39771	-656.61810	235.32600	1520.25879	-671.55536	263.63168	1644.53845	-814.85919	341.38028	1132.34766	-766.91833	223.45869	1121.13489	-807.22827	248.24667	1073.23071	-774.93817	315.32724	1177.44434	-723.23859	282.17245	1469.25684	-642.02277	212.09016	1488.60291	-655.83160	214.11487	1443.89124	-710.19226	278.27798	1514.11499	-671.45947	239.01460	1596.41406	-863.08459	335.08923	1031.40344	
395	3.940	-895.47449	444.02890	1007.07758	-904.69196	520.42419	897.68695	-896.87408	529.67120	1000.16602	-903.51782	435.97031	904.78864	-886.96069	488.52747	1023.97125	-835.84479	373.66730	1039.75916	-801.72198	663.93237	991.19891	-700.38599	233.80403	1258.38904	-691.70374	278.15063	1534.37878	-656.25867	235.40996	1520.17603	-671.59637	263.70950	1644.52783	-814.85919	341.38028	1132.34766	-766.91992	223.44009	1121.20166	-807.14508	248.20070	1073.23035	-774.93817	315.32724	1177.44434	-723.30646	282.20120	1469.29871	-642.02173	212.07780	1488.66675	-655.81750	214.11494	1443.92993	-710.19666	278.26974	1514.20605	-671.45947	239.01460	1596.41406	-863.09161	335.08945	1031.39917	
396	3.950	-895.47601	444.02899	1007.08130	-904.53967	520.30029	897.62292	-896.84100	529.62903	1000.12238	-903.51410	435.97015	904.78424	-886.95453	488.52835	1023.96124	-835.80206	373.63232	1039.74683	-801.71454	663.93896	991.21698	-700.38599	233.80403	1258.38904	-691.70917	278.16876	1534.36621	-656.56519	235.37410	1520.24963	-671.58478	263.72253	1644.55408	-814.85919	341.38028	1132.34766	-766.91992	223.44009	1121.20166	-807.27484	248.10789	1073.40405	-774.83575	315.28711	1177.39185	-723.30646	282.20120	1469.29871	-642.02173	212.07780	1488.66675	-655.81750	214.11494	1443.92993	-710.17017	278.32553	1514.21118	-671.45947	239.01460	1596.41406	-863.06219	335.06000	1031.37207	
